<?xml version="1.0" encoding="UTF-8" standalone="no"?>
<svg
   xmlns:dc="http://purl.org/dc/elements/1.1/"
   xmlns:cc="http://creativecommons.org/ns#"
   xmlns:rdf="http://www.w3.org/1999/02/22-rdf-syntax-ns#"
   xmlns:svg="http://www.w3.org/2000/svg"
   xmlns="http://www.w3.org/2000/svg"
   width="24"
   height="24"
   viewBox="0 0 6.35 6.35"
   version="1.1"
   id="svg8">
  <defs
     id="defs2" />
  <metadata
     id="metadata5">
    <rdf:RDF>
      <cc:Work
         rdf:about="">
        <dc:format>image/svg+xml</dc:format>
        <dc:type
           rdf:resource="http://purl.org/dc/dcmitype/StillImage" />
        <dc:title></dc:title>
      </cc:Work>
    </rdf:RDF>
  </metadata>
  <style
     id="style872">
		tspan { white-space:pre }
	</style>
  <style
     id="style872-8">
		tspan { white-space:pre }
	</style>
  <g
     id="layer1"
     transform="translate(-152.4319,-193.47273)">
    <path
       id="path843"
       d="m 153.30075,193.66261 -0.50049,0.2945 v 5.70186 h 5.15664 l 0.078,-0.18504 h -5.05121 v -0.0638 -5.26563 l 0.31705,-0.18668 v 3.91867 c 0,1.1425 0.50939,1.40113 0.50939,1.40113 h 4.14676 0.74175 c 0,0.009 -0.51835,-0.31455 -0.51835,-1.5015 v -4.11351 h -0.23233 z m 0.24412,1.21368 h 4.41862 c -0.002,0.98554 0.003,1.9711 0.006,2.95664 0.0197,0.3769 0.0585,0.75192 0.22143,1.11449 h -4.30086 c -0.18751,-0.13709 -0.32277,-0.3918 -0.33679,-0.91922 z m 2.43365,0.10566 c -0.34559,0.41209 -0.24641,1.34861 -0.0841,1.87422 -0.0722,-0.0678 -0.14272,-0.13166 -0.21117,-0.19104 -0.0457,-0.45458 -0.96021,-1.5386 -1.65345,-1.5538 0.0227,0.64283 1.01562,1.40894 1.47829,1.59839 0.11804,0.099 0.24521,0.21495 0.37758,0.34336 -0.48294,-0.27493 -1.46424,-0.48866 -1.92135,-0.19454 0.48895,0.36659 1.90663,0.52042 2.172,0.44622 0.10053,0.10408 0.19941,0.20976 0.2966,0.31696 -0.0518,-0.0182 -1.28835,-0.29489 -1.65274,-0.009 0.44558,0.33132 1.54479,0.36525 1.87793,0.26315 0.0321,0.0371 0.0643,0.0743 0.0962,0.11169 0.0245,0.003 0.0498,0.008 0.0761,0.0174 0.10331,0.0369 0.16709,0.12392 0.18753,0.21685 0.006,0.031 0.0101,0.0627 0.009,0.0949 0.12261,0.15198 0.2403,0.30381 0.34976,0.45175 l 0.11846,-0.0874 c -0.13777,-0.18621 -0.28758,-0.37787 -0.44369,-0.5683 0.26077,-0.33945 0.5548,-1.41245 0.45092,-1.79363 -0.42569,0.25947 -0.6049,1.14063 -0.60078,1.61347 -0.0738,-0.0872 -0.14836,-0.17359 -0.22392,-0.25918 0.25615,-0.34008 0.3525,-1.67833 0.0543,-2.16806 -0.41107,0.40766 -0.36485,1.46737 -0.22805,1.97434 -0.12225,-0.13379 -0.24445,-0.26264 -0.36427,-0.38346 0.18116,-0.42464 0.21826,-1.68352 -0.16143,-2.11363 z m 0.50386,3.07996 c -0.10458,0.0131 -0.21431,0.0266 -0.32472,0.0356 -0.0991,0.14946 -0.13594,0.37911 -0.0257,0.41558 0.032,0.0106 0.0805,0.002 0.13627,-0.034 0.0321,-0.0206 0.0649,-0.0494 0.095,-0.0828 0.0191,-0.10664 0.0632,-0.21103 0.12687,-0.28793 -6.5e-4,-0.0171 -0.003,-0.0324 -0.007,-0.0465 z m -0.63318,0.0451 v 3e-5 c -0.24295,0.0581 -0.46056,0.1631 -0.5795,0.32476 0.1736,0.0149 0.40551,0.017 0.64375,0.007 -0.0153,-0.10237 0.0113,-0.22371 0.0654,-0.33175 -0.0439,9.4e-4 -0.0872,9.4e-4 -0.12965,-4e-4 z m 0.88256,0.0261 c -0.23429,-0.008 -0.3029,0.56449 -0.11964,0.58196 0.0334,0.003 0.0788,-0.0164 0.12528,-0.0635 0.0465,-0.0473 0.0895,-0.11849 0.11519,-0.19254 0.0257,-0.074 0.0336,-0.15055 0.0214,-0.20617 -0.0122,-0.0556 -0.0359,-0.0895 -0.0932,-0.10992 -0.0171,-0.006 -0.0334,-0.009 -0.0491,-0.0101 z"
       style="fill:#000000;fill-opacity:1;stroke:none;stroke-width:0.02154661px;stroke-linecap:butt;stroke-linejoin:miter;stroke-opacity:1" />
  </g>
  <style
     id="style872-5">
		tspan { white-space:pre }
	</style>
</svg>
